# Blender v2.93.5 OBJ File: ''
# www.blender.org
mtllib AStarEnemy_hitbox.mtl
o path0
v 0.018378 0.016988 -0.045071
v 0.018378 0.019506 -0.035984
v 0.018378 0.014946 -0.034641
v 0.018378 0.009144 -0.045439
v 0.018378 0.006136 -0.042676
v 0.018378 0.010513 -0.032859
v 0.018378 0.005469 -0.030672
v 0.018378 -0.001073 -0.042063
v 0.018378 -0.004315 -0.039596
v 0.018378 0.001486 -0.028162
v 0.018378 -0.002652 -0.025462
v 0.018378 -0.010925 -0.035895
v 0.018378 -0.014135 -0.033307
v 0.018378 -0.006468 -0.022469
v 0.018378 -0.010770 -0.018468
v 0.018378 -0.021270 -0.028414
v 0.018378 -0.023482 -0.024725
v 0.018378 -0.014100 -0.014981
v 0.018378 -0.020499 -0.006898
v 0.018378 -0.028898 -0.018533
v 0.018378 -0.030650 -0.014775
v 0.018378 -0.025906 0.002602
v 0.018378 -0.035801 -0.008078
v 0.018378 -0.037131 -0.004014
v 0.018378 -0.028189 0.008210
v 0.018378 -0.040560 0.003838
v 0.018378 -0.041288 0.008118
v 0.018378 -0.031145 0.016810
v 0.018378 -0.041952 0.015446
v 0.018378 -0.042929 0.019491
v 0.018378 -0.032606 0.021663
v 0.018378 -0.033658 0.027394
v 0.018378 -0.044306 0.030155
v 0.018378 -0.033909 0.034064
v 0.018378 -0.043271 0.040913
v 0.018378 -0.042437 0.044992
v 0.018378 -0.032747 0.041342
v 0.018378 -0.031415 0.044955
v 0.018378 -0.040068 0.052740
v 0.018378 -0.037679 0.055636
v 0.018378 -0.028989 0.049319
v 0.018378 -0.026102 0.052192
v 0.018378 -0.030902 0.063177
v 0.018378 -0.027016 0.063721
v 0.018378 -0.022266 0.055019
v 0.018378 -0.017395 0.056855
v 0.018378 -0.017754 0.065574
v 0.018378 -0.013722 0.065543
v 0.018378 -0.012577 0.057910
v 0.018378 -0.007035 0.058010
v 0.018378 -0.005365 0.066152
v 0.018378 -0.001435 0.064732
v 0.018378 -0.002359 0.057540
v 0.018378 0.002891 0.056040
v 0.018378 0.007138 0.064651
v 0.018378 0.011066 0.063961
v 0.018378 0.007182 0.054024
v 0.018378 0.011097 0.051178
v 0.018378 0.017475 0.058226
v 0.018378 0.020403 0.055672
v 0.018378 0.014329 0.047575
v 0.018378 0.017052 0.043058
v 0.018378 0.023797 0.048453
v 0.018378 0.026608 0.046033
v 0.018378 0.019012 0.038342
v 0.018378 0.020951 0.031617
v 0.018378 0.027790 0.037558
v 0.018378 0.030541 0.034891
v 0.018378 0.022082 0.026038
v 0.018378 0.026489 0.019445
v 0.018378 0.032259 0.027617
v 0.018378 0.035215 0.024554
v 0.018378 0.030378 0.016364
v 0.018378 0.037370 0.014639
v 0.018378 0.042279 0.024810
v 0.018378 0.046240 0.024374
v 0.018378 0.042048 0.013051
v 0.018378 0.049079 0.008921
v 0.018378 0.054563 0.019201
v 0.018378 0.057530 0.017749
v 0.018378 0.053022 0.004175
v 0.018378 0.062877 0.008966
v 0.018378 0.065181 0.006194
v 0.018378 0.055472 0.000174
v 0.018378 0.057158 -0.004285
v 0.018378 0.067640 -0.002968
v 0.018378 0.068963 -0.006819
v 0.018378 0.058053 -0.008896
v 0.018378 0.058053 -0.014136
v 0.018378 0.068618 -0.017206
v 0.018378 0.068338 -0.021227
v 0.018378 0.057155 -0.018772
v 0.018378 0.055563 -0.023097
v 0.018378 0.065868 -0.030190
v 0.018378 0.063442 -0.033095
v 0.018378 0.053017 -0.027176
v 0.018378 0.046213 -0.033941
v 0.018378 0.056810 -0.040132
v 0.018378 0.053441 -0.042436
v 0.018378 0.042515 -0.035556
v 0.018378 0.045460 -0.045741
v 0.018378 0.041395 -0.046408
v 0.018378 0.037959 -0.037225
v 0.018378 0.033689 -0.037919
v 0.018378 0.030926 -0.047057
v 0.018378 0.026672 -0.037312
v 0.018378 0.020784 -0.046830
vt 0.986446 0.000000
vt 0.970174 0.000000
vt 0.977771 0.000000
vt 0.955563 0.000000
vt 0.941466 0.000000
vt 0.946242 0.000000
vt 0.002002 0.000000
vt 0.996051 0.000000
vt 0.013015 0.000000
vt 0.041965 0.000000
vt 0.019792 0.000000
vt 0.033088 0.000000
vt 0.923915 0.000000
vt 0.904910 0.000000
vt 0.912674 0.000000
vt 0.931185 0.000000
vt 0.073915 0.000000
vt 0.059088 0.000000
vt 0.069679 0.000000
vt 0.052569 0.000000
vt 0.085141 0.000000
vt 0.884468 0.000000
vt 0.869161 0.000000
vt 0.873649 0.000000
vt 0.092119 0.000000
vt 0.859436 0.000000
vt 0.118215 0.000000
vt 0.102837 0.000000
vt 0.107396 0.000000
vt 0.151191 0.000000
vt 0.131779 0.000000
vt 0.138936 0.000000
vt 0.852148 0.000000
vt 0.836552 0.000000
vt 0.841168 0.000000
vt 0.165379 0.000000
vt 0.831887 0.000000
vt 0.830803 0.000000
vt 0.179383 0.000000
vt 0.185713 0.000000
vt 0.173678 0.000000
vt 0.819808 0.000000
vt 0.808658 0.000000
vt 0.815178 0.000000
vt 0.225120 0.000000
vt 0.797726 0.000000
vt 0.215012 0.000000
vt 0.210241 0.000000
vt 0.777657 0.000000
vt 0.786884 0.000000
vt 0.782629 0.000000
vt 0.760022 0.000000
vt 0.232668 0.000000
vt 0.247869 0.000000
vt 0.243149 0.000000
vt 0.733162 0.000000
vt 0.749735 0.000000
vt 0.755615 0.000000
vt 0.265344 0.000000
vt 0.702931 0.000000
vt 0.693984 0.000000
vt 0.281169 0.000000
vt 0.276035 0.000000
vt 0.722247 0.000000
vt 0.713549 0.000000
vt 0.669533 0.000000
vt 0.682130 0.000000
vt 0.675684 0.000000
vt 0.291753 0.000000
vt 0.656268 0.000000
vt 0.304772 0.000000
vt 0.312112 0.000000
vt 0.630163 0.000000
vt 0.326748 0.000000
vt 0.645307 0.000000
vt 0.640540 0.000000
vt 0.616594 0.000000
vt 0.338884 0.000000
vt 0.354122 0.000000
vt 0.343797 0.000000
vt 0.593019 0.000000
vt 0.605418 0.000000
vt 0.367131 0.000000
vt 0.600813 0.000000
vt 0.578596 0.000000
vt 0.384479 0.000000
vt 0.371907 0.000000
vt 0.393709 0.000000
vt 0.551491 0.000000
vt 0.566841 0.000000
vt 0.376349 0.000000
vt 0.537947 0.000000
vt 0.421889 0.000000
vt 0.562172 0.000000
vt 0.511990 0.000000
vt 0.498381 0.000000
vt 0.400942 0.000000
vt 0.439940 0.000000
vt 0.459969 0.000000
vt 0.465641 0.000000
vt 0.527499 0.000000
vt 0.487188 0.000000
vt 0.454779 0.000000
vt 0.409726 0.000000
vt 0.450427 0.000000
vt 0.522804 0.000000
vt 0.479482 0.000000
vn -1.0000 -0.0000 0.0000
usemtl SVGMat.002
s off
f 106/1/1 104/2/1 105/3/1
f 103/4/1 101/5/1 102/6/1
f 1/7/1 106/1/1 107/8/1
f 2/9/1 106/1/1 1/7/1
f 5/10/1 3/11/1 4/12/1
f 97/13/1 98/14/1 99/15/1
f 103/4/1 100/16/1 101/5/1
f 106/1/1 103/4/1 104/2/1
f 106/1/1 100/16/1 103/4/1
f 2/9/1 100/16/1 106/1/1
f 3/11/1 100/16/1 2/9/1
f 3/11/1 97/13/1 100/16/1
f 9/17/1 7/18/1 8/19/1
f 6/20/1 3/11/1 5/10/1
f 6/20/1 97/13/1 3/11/1
f 7/18/1 97/13/1 6/20/1
f 10/21/1 7/18/1 9/17/1
f 7/18/1 96/22/1 97/13/1
f 10/21/1 96/22/1 7/18/1
f 96/22/1 94/23/1 95/24/1
f 11/25/1 96/22/1 10/21/1
f 96/22/1 93/26/1 94/23/1
f 11/25/1 93/26/1 96/22/1
f 14/27/1 12/28/1 13/29/1
f 14/27/1 11/25/1 12/28/1
f 14/27/1 93/26/1 11/25/1
f 17/30/1 15/31/1 16/32/1
f 14/27/1 92/33/1 93/26/1
f 92/33/1 90/34/1 91/35/1
f 18/36/1 15/31/1 17/30/1
f 14/27/1 90/34/1 92/33/1
f 15/31/1 90/34/1 14/27/1
f 18/36/1 90/34/1 15/31/1
f 18/36/1 89/37/1 90/34/1
f 18/36/1 88/38/1 89/37/1
f 21/39/1 19/40/1 20/41/1
f 19/40/1 88/38/1 18/36/1
f 19/40/1 87/42/1 88/38/1
f 19/40/1 85/43/1 87/42/1
f 86/44/1 87/42/1 85/43/1
f 22/45/1 85/43/1 19/40/1
f 22/45/1 84/46/1 85/43/1
f 24/47/1 22/45/1 23/48/1
f 22/45/1 81/49/1 84/46/1
f 81/49/1 83/50/1 84/46/1
f 82/51/1 83/50/1 81/49/1
f 22/45/1 78/52/1 81/49/1
f 25/53/1 78/52/1 22/45/1
f 27/54/1 25/53/1 26/55/1
f 27/54/1 78/52/1 25/53/1
f 27/54/1 77/56/1 78/52/1
f 79/57/1 80/58/1 78/52/1
f 28/59/1 77/56/1 27/54/1
f 28/59/1 74/60/1 77/56/1
f 28/59/1 73/61/1 74/60/1
f 30/62/1 28/59/1 29/63/1
f 74/60/1 76/64/1 77/56/1
f 30/62/1 73/61/1 28/59/1
f 75/65/1 76/64/1 74/60/1
f 30/62/1 70/66/1 73/61/1
f 70/66/1 72/67/1 73/61/1
f 71/68/1 72/67/1 70/66/1
f 31/69/1 70/66/1 30/62/1
f 31/69/1 69/70/1 70/66/1
f 32/71/1 69/70/1 31/69/1
f 33/72/1 69/70/1 32/71/1
f 33/72/1 66/73/1 69/70/1
f 34/74/1 66/73/1 33/72/1
f 66/73/1 68/75/1 69/70/1
f 67/76/1 68/75/1 66/73/1
f 34/74/1 65/77/1 66/73/1
f 35/78/1 65/77/1 34/74/1
f 37/79/1 65/77/1 35/78/1
f 35/78/1 36/80/1 37/79/1
f 37/79/1 62/81/1 65/77/1
f 62/81/1 64/82/1 65/77/1
f 38/83/1 62/81/1 37/79/1
f 63/84/1 64/82/1 62/81/1
f 38/83/1 61/85/1 62/81/1
f 41/86/1 61/85/1 38/83/1
f 39/87/1 41/86/1 38/83/1
f 42/88/1 61/85/1 41/86/1
f 42/88/1 58/89/1 61/85/1
f 58/89/1 60/90/1 61/85/1
f 39/87/1 40/91/1 41/86/1
f 42/88/1 57/92/1 58/89/1
f 45/93/1 57/92/1 42/88/1
f 59/94/1 60/90/1 58/89/1
f 45/93/1 54/95/1 57/92/1
f 45/93/1 53/96/1 54/95/1
f 43/97/1 45/93/1 42/88/1
f 46/98/1 53/96/1 45/93/1
f 49/99/1 53/96/1 46/98/1
f 50/100/1 53/96/1 49/99/1
f 54/95/1 56/101/1 57/92/1
f 50/100/1 52/102/1 53/96/1
f 46/98/1 48/103/1 49/99/1
f 43/97/1 44/104/1 45/93/1
f 47/105/1 48/103/1 46/98/1
f 55/106/1 56/101/1 54/95/1
f 51/107/1 52/102/1 50/100/1
