# Blender v2.93.5 OBJ File: 'hunter.blend'
# www.blender.org
mtllib hunter_hitbox.mtl
o path0_path0.001
v -0.032941 -0.461844 -0.000000
v -0.191541 -0.387375 -0.000000
v -0.194560 -0.462977 -0.000000
v -0.262053 -0.350908 -0.000000
v -0.388793 -0.236252 -0.000000
v -0.424355 0.337395 0.000000
v -0.237157 0.391908 0.000000
v -0.131261 0.453547 0.000000
v -0.105995 0.375627 0.000000
v -0.105519 0.370707 0.000000
v 0.051115 0.370707 0.000000
v 0.164604 0.477810 0.000000
v 0.228166 0.371046 0.000000
v 0.431398 0.298697 0.000000
v 0.362807 -0.289617 -0.000000
v 0.210891 -0.357737 -0.000000
v 0.278902 -0.442481 -0.000000
v 0.109258 -0.429184 -0.000000
v 0.043727 -0.358322 -0.000000
v -0.097314 -0.358618 -0.000000
vt 0.159720 0.000000
vt 0.041252 0.000000
vt 0.111112 0.000000
vt 0.910956 0.000000
vt 0.924017 0.000000
vt 0.905891 0.000000
vt 0.708563 0.000000
vt 0.823028 0.000000
vt 0.649131 0.000000
vt 0.618784 0.000000
vt 0.201198 0.000000
vt 0.541913 0.000000
vt 0.277462 0.000000
vt 0.514528 0.000000
vt 0.422030 0.000000
vt 0.418317 0.000000
vt 0.403469 0.000000
vt 0.453157 0.000000
vt 0.330781 0.000000
vt 0.364491 0.000000
vn 0.0000 0.0000 -1.0000
usemtl SVGMat.002
s off
f 4/1/1 2/2/1 3/3/1
f 2/2/1 20/4/1 1/5/1
f 4/1/1 20/4/1 2/2/1
f 19/6/1 17/7/1 18/8/1
f 19/6/1 16/9/1 17/7/1
f 20/4/1 16/9/1 19/6/1
f 4/1/1 16/9/1 20/4/1
f 4/1/1 15/10/1 16/9/1
f 5/11/1 15/10/1 4/1/1
f 5/11/1 14/12/1 15/10/1
f 6/13/1 14/12/1 5/11/1
f 6/13/1 13/14/1 14/12/1
f 11/15/1 13/14/1 6/13/1
f 10/16/1 11/15/1 6/13/1
f 6/13/1 9/17/1 10/16/1
f 12/18/1 13/14/1 11/15/1
f 7/19/1 9/17/1 6/13/1
f 7/19/1 8/20/1 9/17/1
