# Blender v2.93.5 OBJ File: ''
# www.blender.org
mtllib runner_hitbox.mtl
o path0
v 0.002549 -0.407471 -0.000000
v -0.168792 -0.273227 -0.000000
v -0.172856 -0.053447 -0.000000
v -0.053949 0.005584 0.000000
v -0.054920 0.089800 0.000000
v -0.068109 0.165026 0.000000
v -0.098915 0.203885 0.000000
v -0.210354 0.125544 0.000000
v -0.373020 0.354645 0.000000
v -0.211775 0.163307 0.000000
v -0.112331 0.242603 0.000000
v -0.222615 0.273124 0.000000
v -0.321585 0.427211 0.000000
v -0.192213 0.289893 0.000000
v -0.125332 0.287292 0.000000
v -0.158118 0.371587 0.000000
v 0.045501 0.296042 0.000000
v 0.150092 0.296701 0.000000
v 0.162538 0.375013 0.000000
v 0.292197 0.424753 0.000000
v 0.313194 0.406323 0.000000
v 0.133105 0.233752 0.000000
v 0.215684 0.186482 0.000000
v 0.372747 0.325665 0.000000
v 0.369096 0.279698 0.000000
v 0.226359 0.155244 0.000000
v 0.105684 0.203364 0.000000
v 0.110292 0.167385 0.000000
v 0.085005 0.114620 0.000000
v 0.044844 0.166501 0.000000
v 0.046812 0.017708 0.000000
v 0.172774 -0.041352 -0.000000
v 0.190109 -0.280591 -0.000000
v 0.003615 -0.400375 -0.000000
v 0.046884 0.234618 0.000000
v 0.081021 0.167358 0.000000
v -0.055132 0.228231 0.000000
vt 0.034253 0.000000
vt 0.885005 0.000000
vt 0.705573 0.000000
vt 0.049374 0.000000
vt 0.834685 0.000000
vt 0.063299 0.000000
vt 0.810733 0.000000
vt 0.085789 0.000000
vt 0.791286 0.000000
vt 0.770511 0.000000
vt 0.778626 0.000000
vt 0.881963 0.000000
vt 0.144291 0.000000
vt 0.263022 0.000000
vt 0.466574 0.000000
vt 0.951244 0.000000
vt 0.837781 0.000000
vt 0.293119 0.000000
vt 0.651701 0.000000
vt 0.740770 0.000000
vt 0.936584 0.000000
vt 0.967978 0.000000
vt 0.636545 0.000000
vt 0.190965 0.000000
vt 0.697111 0.000000
vt 0.709322 0.000000
vt 0.310647 0.000000
vt 0.530214 0.000000
vt 0.398513 0.000000
vt 0.458980 0.000000
vt 0.388559 0.000000
vt 0.597665 0.000000
vt 0.583712 0.000000
vt 0.345169 0.000000
vn 0.0000 0.0000 -1.0000
usemtl SVGMat.001
s off
f 2/1/1 33/2/1 1/3/1
f 3/4/1 33/2/1 2/1/1
f 3/4/1 32/5/1 33/2/1
f 4/6/1 32/5/1 3/4/1
f 4/6/1 31/7/1 32/5/1
f 5/8/1 31/7/1 4/6/1
f 5/8/1 30/9/1 31/7/1
f 30/9/1 28/10/1 29/11/1
f 6/12/1 30/9/1 5/8/1
f 6/12/1 28/10/1 30/9/1
f 8/13/1 10/14/1 7/15/1
f 6/12/1 36/16/1 28/10/1
f 36/16/1 27/17/1 28/10/1
f 11/18/1 7/15/1 10/14/1
f 27/17/1 23/19/1 26/20/1
f 6/12/1 35/21/1 36/16/1
f 37/22/1 35/21/1 6/12/1
f 27/17/1 22/23/1 23/19/1
f 9/24/1 10/14/1 8/13/1
f 24/25/1 26/20/1 23/19/1
f 24/25/1 25/26/1 26/20/1
f 11/18/1 37/22/1 7/15/1
f 11/18/1 35/21/1 37/22/1
f 35/21/1 22/23/1 27/17/1
f 11/18/1 22/23/1 35/21/1
f 12/27/1 22/23/1 11/18/1
f 12/27/1 18/28/1 22/23/1
f 15/29/1 18/28/1 12/27/1
f 15/29/1 17/30/1 18/28/1
f 12/27/1 14/31/1 15/29/1
f 18/28/1 21/32/1 22/23/1
f 20/33/1 21/32/1 18/28/1
f 12/27/1 13/34/1 14/31/1
l 34 1
l 6 7
l 18 19
l 15 16
