# Blender v2.93.5 OBJ File: 'sword_hitbox.blend'
# www.blender.org
mtllib sword_hitbox.mtl
o path0
v -0.250555 -0.049746 -0.000000
v -0.452547 -0.063223 -0.000000
v -0.452547 0.109606 0.000000
v -0.249222 0.100158 0.000000
v -0.195952 0.161223 0.000000
v -0.071933 0.102399 0.000000
v 0.202256 0.149784 0.000000
v 0.457359 0.024319 0.000000
v 0.183959 -0.111061 -0.000000
v -0.039190 -0.053794 -0.000000
v -0.199308 -0.116390 -0.000000
vt 0.824022 0.000000
vt 0.682636 0.000000
vt 0.756217 0.000000
vt 0.043039 0.000000
vt 0.949494 0.000000
vt 0.236364 0.000000
vt 0.218182 0.000000
vt 0.318064 0.000000
vt 0.522872 0.000000
vt 0.611603 0.000000
vt 0.400323 0.000000
vn 0.0000 0.0000 -1.0000
usemtl SVGMat.001
s off
f 10/1/1 8/2/1 9/3/1
f 1/4/1 10/1/1 11/5/1
f 3/6/1 1/4/1 2/7/1
f 1/4/1 8/2/1 10/1/1
f 3/6/1 8/2/1 1/4/1
f 3/6/1 4/8/1 8/2/1
f 6/9/1 8/2/1 4/8/1
f 6/9/1 7/10/1 8/2/1
f 5/11/1 6/9/1 4/8/1
