# Blender v2.93.5 OBJ File: ''
# www.blender.org
mtllib tree_hitbox.mtl
o Curve
v 0.012430 -0.424487 -0.000000
v -0.279512 -0.380513 -0.000000
v -0.399984 -0.321741 -0.000000
v -0.382178 -0.176337 -0.000000
v -0.279523 -0.102710 -0.000000
v -0.393955 0.016955 0.000000
v -0.223014 0.112298 0.000000
v -0.071084 0.078182 0.000000
v -0.089193 0.330891 0.000000
v -0.201444 0.487600 0.000000
v 0.150422 0.481672 0.000000
v 0.158027 0.482354 0.000000
v 0.233505 0.476571 0.000000
v 0.220435 0.305825 0.000000
v 0.060087 0.118712 0.000000
v 0.281992 0.052053 0.000000
v 0.443465 0.012725 0.000000
v 0.424939 -0.111741 -0.000000
v 0.467246 -0.215530 -0.000000
v 0.256979 -0.278089 -0.000000
v 0.340130 -0.353195 -0.000000
v 0.263193 -0.468548 -0.000000
vt 0.038535 0.000000
vt 0.932809 0.000000
vt 0.821627 0.000000
vt 0.096679 0.000000
vt 0.128453 0.000000
vt 0.899000 0.000000
vt 0.176938 0.000000
vt 0.855026 0.000000
vt 0.824466 0.000000
vt 0.213947 0.000000
vt 0.241835 0.000000
vt 0.788702 0.000000
vt 0.751702 0.000000
vt 0.307776 0.000000
vt 0.268712 0.000000
vt 0.710009 0.000000
vt 0.386660 0.000000
vt 0.613623 0.000000
vt 0.572208 0.000000
vt 0.472668 0.000000
vt 0.532131 0.000000
vn 0.0000 0.0000 -1.0000
usemtl SVGMat
s off
f 1/1/1 21/2/1 22/3/1
f 2/4/1 21/2/1 1/1/1
f 3/5/1 21/2/1 2/4/1
f 3/5/1 20/6/1 21/2/1
f 4/7/1 20/6/1 3/5/1
f 4/7/1 19/8/1 20/6/1
f 4/7/1 18/9/1 19/8/1
f 5/10/1 18/9/1 4/7/1
f 6/11/1 18/9/1 5/10/1
f 6/11/1 17/12/1 18/9/1
f 6/11/1 16/13/1 17/12/1
f 6/11/1 8/14/1 16/13/1
f 7/15/1 8/14/1 6/11/1
f 8/14/1 15/16/1 16/13/1
f 9/17/1 15/16/1 8/14/1
f 9/17/1 14/18/1 15/16/1
f 9/17/1 13/19/1 14/18/1
f 10/20/1 13/19/1 9/17/1
f 10/20/1 11/21/1 13/19/1
l 11 12
