# Blender v2.93.5 OBJ File: ''
# www.blender.org
mtllib fireball_hitbox.mtl
o path0
v -0.126290 -0.266887 -0.000000
v -0.265186 -0.135411 -0.000000
v -0.313289 -0.048827 -0.000000
v -0.255240 0.038461 0.000000
v -0.332958 0.116548 0.000000
v -0.347955 0.252627 0.000000
v -0.144175 0.356744 0.000000
v 0.147469 0.295300 0.000000
v 0.326713 0.179753 0.000000
v 0.399201 0.068221 0.000000
v 0.432002 -0.092315 -0.000000
v 0.395966 -0.197260 -0.000000
v 0.270130 -0.324534 -0.000000
v 0.086591 -0.361015 -0.000000
v -0.436178 -0.052470 -0.000000
v -0.406101 0.055595 0.000000
v -0.326649 0.004902 0.000000
vt 0.098885 0.000000
vt 0.923498 0.000000
vt 0.411436 0.000000
vt 0.854915 0.000000
vt 0.212763 0.000000
vt 0.808398 0.000000
vt 0.284056 0.000000
vt 0.331999 0.000000
vt 0.743445 0.000000
vt 0.981482 0.000000
vt 0.991320 0.000000
vt 0.978449 0.000000
vt 0.389118 0.000000
vt 0.697494 0.000000
vt 0.457442 0.000000
vt 0.646242 0.000000
vt 0.532621 0.000000
vn -0.0000 0.0000 -1.0000
usemtl SVGMat.001
s off
f 1/1/1 13/2/1 14/3/1
f 1/1/1 12/4/1 13/2/1
f 2/5/1 12/4/1 1/1/1
f 2/5/1 11/6/1 12/4/1
f 3/7/1 11/6/1 2/5/1
f 4/8/1 11/6/1 3/7/1
f 4/8/1 10/9/1 11/6/1
f 16/10/1 17/11/1 15/12/1
f 5/13/1 10/9/1 4/8/1
f 5/13/1 9/14/1 10/9/1
f 6/15/1 9/14/1 5/13/1
f 6/15/1 8/16/1 9/14/1
f 7/17/1 8/16/1 6/15/1
