# Blender v2.93.5 OBJ File: ''
# www.blender.org
mtllib yellow-virus.mtl
o path0_path0.001
v -0.000662 -0.046111 -0.000000
v -0.001302 -0.036955 -0.000000
v -0.008340 -0.034414 -0.000000
v -0.012216 -0.039224 -0.000000
v -0.013617 -0.033483 -0.000000
v -0.022430 -0.028482 -0.000000
v -0.021355 -0.037013 -0.000000
v -0.029519 -0.031419 -0.000000
v -0.027976 -0.024528 -0.000000
v -0.032540 -0.017974 -0.000000
v -0.035995 -0.019920 -0.000000
v -0.036766 -0.014096 -0.000000
v -0.037240 -0.007256 -0.000000
v -0.042828 -0.012653 -0.000000
v -0.046268 -0.006080 -0.000000
v -0.039247 -0.003913 -0.000000
v -0.042085 0.000977 0.000000
v -0.037315 0.003828 0.000000
v -0.045927 0.004285 0.000000
v -0.041522 0.013085 0.000000
v -0.037538 0.008034 0.000000
v -0.034132 0.013377 0.000000
v -0.038341 0.016488 0.000000
v -0.032174 0.016842 0.000000
v -0.030869 0.020029 0.000000
v -0.035799 0.026227 0.000000
v -0.028622 0.022808 0.000000
v -0.023630 0.026528 0.000000
v -0.029104 0.030360 0.000000
v -0.021829 0.028858 0.000000
v -0.014033 0.032051 0.000000
v -0.019013 0.034795 0.000000
v -0.012042 0.038602 0.000000
v 0.000345 0.036198 0.000000
v -0.004554 0.040427 0.000000
v 0.003143 0.042142 0.000000
v 0.011591 0.035518 0.000000
v 0.008591 0.042034 0.000000
v 0.014472 0.037808 0.000000
v 0.020878 0.031202 0.000000
v 0.020258 0.039336 0.000000
v 0.025891 0.033464 0.000000
v 0.026943 0.026053 0.000000
v 0.035645 0.030838 0.000000
v 0.030437 0.023829 0.000000
v 0.033024 0.016811 0.000000
v 0.034156 0.022030 0.000000
v 0.034167 0.013529 0.000000
v 0.040884 0.010363 0.000000
v 0.035831 0.006796 0.000000
v 0.036282 0.002228 0.000000
v 0.041305 0.005110 0.000000
v 0.044052 0.000590 -0.000000
v 0.036979 -0.000589 -0.000000
v 0.035629 -0.010823 -0.000000
v 0.040957 -0.009155 -0.000000
v 0.044130 -0.012667 -0.000000
v 0.040450 -0.018899 -0.000000
v 0.033304 -0.014698 -0.000000
v 0.030832 -0.022531 -0.000000
v 0.028540 -0.025059 -0.000000
v 0.027903 -0.032358 -0.000000
v 0.025306 -0.027210 -0.000000
v 0.020821 -0.031570 -0.000000
v 0.028067 -0.035928 -0.000000
v 0.019352 -0.039043 -0.000000
v 0.013080 -0.034858 -0.000000
v 0.010742 -0.040989 -0.000000
v 0.009058 -0.035503 -0.000000
v 0.002867 -0.036438 -0.000000
v 0.005133 -0.041982 -0.000000
vt 0.016217 0.000000
vt 0.993757 0.000000
vt 0.455035 0.000000
vt 0.980762 0.000000
vt 0.961646 0.000000
vt 0.935699 0.000000
vt 0.949713 0.000000
vt 0.054538 0.000000
vt 0.031780 0.000000
vt 0.046435 0.000000
vt 0.090090 0.000000
vt 0.093148 0.000000
vt 0.082034 0.000000
vt 0.899292 0.000000
vt 0.901730 0.000000
vt 0.909334 0.000000
vt 0.876299 0.000000
vt 0.850545 0.000000
vt 0.864823 0.000000
vt 0.120618 0.000000
vt 0.836281 0.000000
vt 0.143313 0.000000
vt 0.817237 0.000000
vt 0.173643 0.000000
vt 0.160556 0.000000
vt 0.792685 0.000000
vt 0.798887 0.000000
vt 0.189457 0.000000
vt 0.773496 0.000000
vt 0.788089 0.000000
vt 0.205111 0.000000
vt 0.200483 0.000000
vt 0.753300 0.000000
vt 0.220641 0.000000
vt 0.234380 0.000000
vt 0.739332 0.000000
vt 0.725667 0.000000
vt 0.734887 0.000000
vt 0.244994 0.000000
vt 0.260514 0.000000
vt 0.713016 0.000000
vt 0.705325 0.000000
vt 0.279934 0.000000
vt 0.267654 0.000000
vt 0.295467 0.000000
vt 0.694874 0.000000
vt 0.305241 0.000000
vt 0.666829 0.000000
vt 0.316115 0.000000
vt 0.332335 0.000000
vt 0.628311 0.000000
vt 0.346835 0.000000
vt 0.364635 0.000000
vt 0.378154 0.000000
vt 0.600327 0.000000
vt 0.611621 0.000000
vt 0.405323 0.000000
vt 0.387757 0.000000
vt 0.570835 0.000000
vt 0.435804 0.000000
vt 0.519270 0.000000
vt 0.489012 0.000000
vt 0.435991 0.000000
vt 0.443369 0.000000
vt 0.564753 0.000000
vt 0.572682 0.000000
vt 0.519778 0.000000
vt 0.530400 0.000000
vt 0.474877 0.000000
vt 0.482168 0.000000
vn -0.0000 0.0000 -1.0000
usemtl SVGMat.003
s off
f 2/1/1 71/2/1 1/3/1
f 2/1/1 70/4/1 71/2/1
f 69/5/1 67/6/1 68/7/1
f 5/8/1 3/9/1 4/10/1
f 2/1/1 69/5/1 70/4/1
f 3/9/1 69/5/1 2/1/1
f 3/9/1 67/6/1 69/5/1
f 8/11/1 6/12/1 7/13/1
f 5/8/1 67/6/1 3/9/1
f 64/14/1 65/15/1 66/16/1
f 5/8/1 64/14/1 67/6/1
f 6/12/1 64/14/1 5/8/1
f 63/17/1 61/18/1 62/19/1
f 6/12/1 63/17/1 64/14/1
f 6/12/1 61/18/1 63/17/1
f 9/20/1 61/18/1 6/12/1
f 9/20/1 60/21/1 61/18/1
f 10/22/1 60/21/1 9/20/1
f 10/22/1 59/23/1 60/21/1
f 12/24/1 10/22/1 11/25/1
f 12/24/1 59/23/1 10/22/1
f 59/23/1 57/26/1 58/27/1
f 12/24/1 57/26/1 59/23/1
f 13/28/1 57/26/1 12/24/1
f 13/28/1 55/29/1 57/26/1
f 55/29/1 56/30/1 57/26/1
f 15/31/1 13/28/1 14/32/1
f 15/31/1 55/29/1 13/28/1
f 15/31/1 54/33/1 55/29/1
f 16/34/1 54/33/1 15/31/1
f 17/35/1 54/33/1 16/34/1
f 17/35/1 53/36/1 54/33/1
f 17/35/1 51/37/1 53/36/1
f 51/37/1 52/38/1 53/36/1
f 18/39/1 51/37/1 17/35/1
f 19/40/1 51/37/1 18/39/1
f 19/40/1 50/41/1 51/37/1
f 19/40/1 49/42/1 50/41/1
f 21/43/1 49/42/1 19/40/1
f 20/44/1 21/43/1 19/40/1
f 22/45/1 49/42/1 21/43/1
f 22/45/1 48/46/1 49/42/1
f 23/47/1 48/46/1 22/45/1
f 23/47/1 46/48/1 48/46/1
f 24/49/1 46/48/1 23/47/1
f 25/50/1 46/48/1 24/49/1
f 25/50/1 45/51/1 46/48/1
f 26/52/1 27/53/1 25/50/1
f 27/53/1 45/51/1 25/50/1
f 28/54/1 45/51/1 27/53/1
f 28/54/1 43/55/1 45/51/1
f 43/55/1 44/56/1 45/51/1
f 30/57/1 43/55/1 28/54/1
f 29/58/1 30/57/1 28/54/1
f 30/57/1 40/59/1 43/55/1
f 31/60/1 40/59/1 30/57/1
f 31/60/1 37/61/1 40/59/1
f 34/62/1 37/61/1 31/60/1
f 32/63/1 33/64/1 31/60/1
f 41/65/1 42/66/1 40/59/1
f 38/67/1 39/68/1 37/61/1
f 35/69/1 36/70/1 34/62/1
l 46 47
